<svg id="Layer_1" data-name="Layer 1" xmlns="http://www.w3.org/2000/svg" viewBox="0 0 1011.3 167.84"><defs><style>.cls-1{fill:#36bd5d;stroke:#36bd5d;stroke-miterlimit:10;stroke-width:2.43px;}.cls-2{fill:#f5b015;}</style></defs><title>coinback_logo</title><path class="cls-1" d="M178,409.5c0-33.33,26.51-57.2,62.31-57.2,21.21,0,37.5,6.06,49.25,21.41L266,394.35c-7-8.71-15-12.88-24.43-12.88-15.53,0-26.9,10.8-26.9,28s11.37,28,26.9,28c9.47,0,17.42-4.16,24.43-12.87l23.49,20.45c-11.75,15.53-28,21.59-49.25,21.59C204.47,466.7,178,442.84,178,409.5Z" transform="translate(-176.74 -300.08)"/><path class="cls-1" d="M293.28,409c0-33,26.13-56.51,62-56.51,36.25,0,62,23.5,62,56.51,0,33.21-25.72,56.9-62,56.9C319.41,465.94,293.28,442.25,293.28,409Zm85.06,0c0-16.61-9.92-25.93-23.09-25.93-13,0-23.08,9.32-23.08,25.93,0,16.81,10.12,26.32,23.08,26.32C368.42,435.36,378.34,425.85,378.34,409Z" transform="translate(-176.74 -300.08)"/><path class="cls-1" d="M425.2,321.75c0-11.54,9.32-20.45,23.49-20.45s23.5,8.3,23.5,19.84c0,12.15-9.32,21.07-23.5,21.07S425.2,333.29,425.2,321.75Zm4.26,32.61h38.47V464.12H429.46Z" transform="translate(-176.74 -300.08)"/><path class="cls-1" d="M604.67,401.34v62.78H566.19v-56.5c0-15.8-6.89-22.48-18-22.48-12.35,0-21.87,7.7-21.87,25.92v53.06H487.81V354.36h36.66v11.95c8.71-9.12,21.06-13.78,34.83-13.78C585,352.53,604.67,367.32,604.67,401.34Z" transform="translate(-176.74 -300.08)"/><path class="cls-1" d="M744.33,409c0,35-24.1,56.9-53.87,56.9-14.38,0-25.11-4.05-32.4-12.75v10.93H621.4V313.85h38.48v50c7.49-7.7,17.82-11.35,30.58-11.35C720.23,352.53,744.33,374.2,744.33,409Zm-38.88,0c0-16.61-10.13-25.93-23.09-25.93s-23.09,9.32-23.09,25.93c0,16.81,10.13,26.32,23.09,26.32S705.45,425.85,705.45,409Z" transform="translate(-176.74 -300.08)"/><path class="cls-1" d="M860.57,403.16v61H824.73V450c-5.47,10.53-16.41,16-32.41,16-26.32,0-40.9-14.78-40.9-33.82,0-20.25,14.78-32.8,48.8-32.8h21.87c-.6-11.14-8.1-17.42-23.29-17.42-10.53,0-22.27,3.65-29.77,9.52l-13-26.13c12.56-8.3,31.19-12.76,48.4-12.76C840.12,352.53,860.57,368.33,860.57,403.16Zm-38.48,25.72v-9.51h-16.6c-12.36,0-16.81,4.45-16.81,11.13,0,6.48,5.26,11.14,14.38,11.14C811.56,441.64,819.06,437.59,822.09,428.88Z" transform="translate(-176.74 -300.08)"/><path class="cls-1" d="M871.7,409.5c0-33.33,26.52-57.2,62.32-57.2,21.21,0,37.5,6.06,49.24,21.41l-23.49,20.64c-7-8.71-15-12.88-24.43-12.88-15.53,0-26.89,10.8-26.89,28s11.36,28,26.89,28c9.47,0,17.43-4.16,24.43-12.87l23.49,20.45c-11.74,15.53-28,21.59-49.24,21.59C898.22,466.7,871.7,442.84,871.7,409.5Z" transform="translate(-176.74 -300.08)"/><path class="cls-1" d="M1046,425.64l-11.34,11.55v26.93H996.14V313.85h38.48v78.78l39.29-38.27h45.56l-45.56,47,49.41,62.78h-46.58Z" transform="translate(-176.74 -300.08)"/><circle class="cls-2" cx="988.08" cy="143.4" r="23.22"/></svg>