<svg id="Layer_1" data-name="Layer 1" xmlns="http://www.w3.org/2000/svg" viewBox="0 0 162.38 119.4"><defs><style>.cls-1{fill:#36bd5d;}.cls-2{fill:#f5b015;}</style></defs><title>coinback_icon</title><path class="cls-1" d="M688.6,272.47c9.47,0,17.42,4.17,24.43,12.88l23.49-20.64c-11.75-15.35-28-21.41-49.25-21.41-35.8,0-62.31,23.87-62.31,57.2s26.51,57.2,62.31,57.2c21.21,0,37.5-6.06,49.25-21.59L713,315.66c-7,8.71-15,12.87-24.43,12.87-15.53,0-26.9-10.79-26.9-28S673.07,272.47,688.6,272.47Z" transform="translate(-622.46 -240.8)"/><path class="cls-1" d="M687.27,360.2c-37.55,0-64.81-25.1-64.81-59.7s27.26-59.7,64.81-59.7c23.26,0,39.54,7.12,51.23,22.39l1.42,1.85L712.72,289l-1.64-2c-6.55-8.15-13.7-11.95-22.48-11.95-14.59,0-24.4,10.26-24.4,25.53S674,326,688.6,326c8.78,0,15.93-3.79,22.48-11.94l1.63-2,27.21,23.7-1.41,1.86C726.86,353,710.58,360.2,687.27,360.2Zm0-114.4c-34.66,0-59.81,23-59.81,54.7s25.15,54.7,59.81,54.7c20.65,0,35.28-6,45.81-18.77L713.3,319.21c-7.08,8-15.19,11.82-24.7,11.82-17.31,0-29.4-12.55-29.4-30.53S671.29,270,688.6,270c9.51,0,17.61,3.87,24.69,11.82l19.79-17.39C722.51,251.73,707.88,245.8,687.27,245.8Z" transform="translate(-622.46 -240.8)"/><circle class="cls-2" cx="765.63" cy="341" r="19.21" transform="translate(-667.19 -113.76) rotate(-9.22)"/></svg>