<svg xmlns="http://www.w3.org/2000/svg" xmlns:xlink="http://www.w3.org/1999/xlink" viewBox="0 0 550.07 129.15"><defs><style>.cls-1{fill:none;}.cls-2,.cls-4{font-size:60px;font-family:Futura-Medium, Futura;}.cls-2,.cls-4,.cls-9{fill:#fff;}.cls-3{fill:#202328;}.cls-4{letter-spacing:0.32em;}.cls-5{letter-spacing:0.33em;}.cls-6{letter-spacing:0.32em;}.cls-7{letter-spacing:0.32em;}.cls-8{clip-path:url(#clip-path);}</style><clipPath id="clip-path"><rect class="cls-1" y="5.84" width="169.73" height="114"/></clipPath></defs><title>Asset 3</title><g id="Layer_2" data-name="Layer 2"><g id="Layer_1-2" data-name="Layer 1"><text class="cls-2" transform="translate(175.11 52.84)">Social Media</text></g><g id="Layer_3" data-name="Layer 3"><rect class="cls-3" x="177" y="62.74" width="357" height="54.2"/></g><g id="Layer_2-2" data-name="Layer 2"><text class="cls-4" transform="translate(179.13 111.84)">I<tspan class="cls-5" x="36.9" y="0">N</tspan><tspan class="cls-6" x="107.16" y="0">C</tspan><tspan class="cls-7" x="168.11" y="0">OME</tspan></text></g><g id="Layer_9" data-name="Layer 9"><g class="cls-8"><path class="cls-9" d="M70.13,70.9c.09-6.59-3.73-11-11.51-13.74a27.28,27.28,0,0,1-5.54-2.67c-1.07-.81-1.21-1.22-1.23-1.78a1.84,1.84,0,0,1,.68-1.5,5.6,5.6,0,0,1,3.5-.87,19,19,0,0,1,8.66,2.16l1.4.61L68.57,43l-1-.48a22.43,22.43,0,0,0-8.5-2.25V34.31H50.27v6.6c-6.64,1.7-10.8,6.71-10.77,13a11.54,11.54,0,0,0,3.59,8.62,24.05,24.05,0,0,0,8.76,4.85,15.82,15.82,0,0,1,4.75,2.35,2.58,2.58,0,0,1,1.12,2.16,2.11,2.11,0,0,1-1.08,1.91,6.93,6.93,0,0,1-3.73.86,20.42,20.42,0,0,1-10-2.76L41.48,71,38.91,81.48l.86.52A25.17,25.17,0,0,0,50,85v6.41h8.84v-7C65.94,82.66,70.17,77.21,70.13,70.9Zm24-8.06c0,22.85-17.78,41.44-39.64,41.44S14.88,85.69,14.88,62.84,32.66,21.4,54.52,21.4,94.16,40,94.16,62.84Zm5.34,0c0-25.93-20.18-47-45-47s-45,21.1-45,47,20.18,47,45,47S99.5,88.77,99.5,62.84Zm9.54,0c0,31.44-24.46,57-54.52,57S0,94.27,0,62.83s24.46-57,54.52-57S109,31.41,109,62.83Zm-29.94,57h82.13V99H103.34A60.91,60.91,0,0,1,79.1,119.84Zm34.56-47.32a64.11,64.11,0,0,1-7,20.89h63V72.52Zm47.6-52.95H97.74a63.12,63.12,0,0,1,12.68,20.88h50.84Zm-47,47.3c.08-1.35.14-2.7.14-4.08A65,65,0,0,0,112.17,46H153.6V66.87Z"/></g></g></g></svg>