<svg xmlns="http://www.w3.org/2000/svg" viewBox="0 0 560.63 716.25"><defs><style>.cls-1,.cls-2{fill:none;stroke:#fff;stroke-linecap:round;stroke-linejoin:round;}.cls-1{stroke-width:4.82px;}.cls-2{stroke-width:4.11px;}</style></defs><title>Asset 1</title><g id="Layer_2" data-name="Layer 2"><g id="Capa_3" data-name="Capa 3"><g id="_Group_" data-name="&lt;Group&gt;"><path id="_Path_" data-name="&lt;Path&gt;" class="cls-1" d="M200.56,267.81c5.7,1.1,11.7.1,17.1-1.9s10.5-5,15.5-7.9c7.2-4.3,14.5-8.6,21.2-13.7,2.6-2,5.1-4,7.6-6.1a175.35,175.35,0,0,0,15.1-13.5c1.8-1.9,3.5-3.8,5.2-5.9,8.7-10.7,15.2-23.9,19.7-36.9a66.15,66.15,0,0,0,67.4,15.4c-6.3,27.4-21.1,52-38.4,74.2-16,20.6-34.2,39.9-56.4,53.3-22.3-6.2-41-21.5-58.8-36.4-3.5-2.9-7-5.9-10.5-8.8-3.3-2.8-7-6.4-6.4-10.7a2.63,2.63,0,0,1,.7-1.5,1,1,0,0,1,1.5.2"/><path id="_Path_2" data-name="&lt;Path&gt;" class="cls-1" d="M354.36,219.41a6.4,6.4,0,0,1-5.3-3.8,11.89,11.89,0,0,1-.8-6.7c-11.8-3.5-24.8-3.6-35.6-9.4a20.69,20.69,0,0,1-10.9,2.6c-1.5,20.7-57,63.2-76.7,68a9.27,9.27,0,0,1-2.3,12.8,75.7,75.7,0,0,0,36,26.5c1.4-1.8,3.2-5.4,5.3-6.3,3-1.3,6.1-2.4,9.4-2.2a9.88,9.88,0,0,1,8.2,4.5c5.7-4.1,12.3-7.7,18.1-11.8a52.9,52.9,0,0,0,6.5-5.2c2.1-2.1,3.9-4.5,6-6.7,3.2-3.4,7-6.1,10.2-9.5a63.05,63.05,0,0,0,6.9-9.4c2.9-4.4,5.7-8.8,8.6-13.2,2.7-4.1,5.4-8.3,7.8-12.6,2.8-5.1,5.2-10.5,8-15.7"/><path id="_Path_3" data-name="&lt;Path&gt;" class="cls-1" d="M267,268a25.72,25.72,0,0,0-7.8-.6,3.17,3.17,0,0,0-1.6.4,3.46,3.46,0,0,0-1.1,1c-2.7,3.6-2.3,9,.5,12.5a12.84,12.84,0,0,0,12.1,4.3,6.72,6.72,0,0,0,2.8-1,5.81,5.81,0,0,0,2.4-4,10.72,10.72,0,0,0-.6-4.7,15.76,15.76,0,0,0-6-7.5"/><path id="_Path_4" data-name="&lt;Path&gt;" class="cls-1" d="M323.16,212.41a9.17,9.17,0,0,0-6.7,2.3,9.65,9.65,0,0,0-3.2,6.4c-.3,2.3.5,5,2.5,6.2a7,7,0,0,0,2,.8,9.11,9.11,0,0,0,9.1-3.5,8.26,8.26,0,0,0-.1-9.6c-1.1-1.5-3-2.6-4.7-2"/><path id="_Path_5" data-name="&lt;Path&gt;" class="cls-1" d="M302.46,289.61a40.6,40.6,0,0,1-4-20,28.12,28.12,0,0,1-25.4-18.4c-1.6-4.7-1.6-10.7,2.1-14,3.1-2.7,7.7-2.8,11.8-2.2a48,48,0,0,1,20.2,8c2.4,1.7,4.8,3.7,5.8,6.5a9.22,9.22,0,0,1-5.3,11.5l6.9,4.5"/><path id="_Path_6" data-name="&lt;Path&gt;" class="cls-1" d="M281.36,250.41c.6.6,1.3,1.2,1.9,1.8a1.85,1.85,0,0,0,1.2.7,2.23,2.23,0,0,0,1.3-.6,22.13,22.13,0,0,0,5.5-6.3c.6-1.1,1.2-2.4,2.4-2.9a4.83,4.83,0,0,1,2.4-.2,14.25,14.25,0,0,1,5,1.8,4.7,4.7,0,0,1,2.2,2.2,2.27,2.27,0,0,1-.6,2.8"/><path id="_Path_7" data-name="&lt;Path&gt;" class="cls-1" d="M314.26,256.91a53.71,53.71,0,0,0,16,.5"/></g><g id="_Group_2" data-name="&lt;Group&gt;"><path id="_Path_8" data-name="&lt;Path&gt;" class="cls-1" d="M58.06,127.41c5.7-1,10.9-4,15.4-7.8a94.52,94.52,0,0,0,11.7-12.8,212.56,212.56,0,0,0,15-20.3c1.7-2.7,3.3-5.5,5-8.3a169.26,169.26,0,0,0,9.4-17.9c1-2.4,2-4.8,2.8-7.3,4.5-13.1,6-27.7,5.6-41.5a66.57,66.57,0,0,0,35.5,5.1,67,67,0,0,0,33-14.2c3.6,27.8-1.7,56.1-10.1,82.9-7.8,24.8-18.1,49.3-34.3,69.7-23.1,2-46-5.8-67.8-13.6-4.3-1.5-8.6-3.1-12.9-4.6-4.1-1.5-8.8-3.6-9.7-7.8a2.46,2.46,0,0,1,.1-1.7,1,1,0,0,1,1.4-.4"/><path id="_Path_9" data-name="&lt;Path&gt;" class="cls-1" d="M185.26,28.41a6.2,6.2,0,0,1-6.3-1.7,12.37,12.37,0,0,1-3.1-6c-12.3.8-24.5,5.2-36.7,3.6a20.41,20.41,0,0,1-9.3,6.2c5.8,19.9-31.4,79.1-48.1,90.5a9.35,9.35,0,0,1,2.3,12.8,75.27,75.27,0,0,0,43,12.2c.7-2.2,1.2-6.2,2.8-7.8a20.65,20.65,0,0,1,8-5.4,9.74,9.74,0,0,1,9.2,1.4c3.9-5.9,8.9-11.5,12.8-17.4a63.83,63.83,0,0,0,4.3-7.1c1.3-2.7,2.1-5.6,3.3-8.4,1.8-4.3,4.4-8.2,6.2-12.4a62.26,62.26,0,0,0,3.2-11.2c1.2-5.1,2.3-10.2,3.5-15.3,1.1-4.8,2.2-9.7,2.9-14.5.8-5.8,1.2-11.7,2-17.5"/><path id="_Path_10" data-name="&lt;Path&gt;" class="cls-1" d="M120.36,104.41a25.48,25.48,0,0,0-7.6,2.2,3,3,0,0,0-1.3.9,6.11,6.11,0,0,0-.7,1.4c-1.3,4.3,1,9.3,4.9,11.6a13.17,13.17,0,0,0,12.9-.2,7.1,7.1,0,0,0,2.3-1.9,5.35,5.35,0,0,0,.8-4.6,8.72,8.72,0,0,0-2.3-4.2,14.82,14.82,0,0,0-8.2-4.9"/><path id="_Path_11" data-name="&lt;Path&gt;" class="cls-1" d="M153.66,32.71a9.12,9.12,0,0,0-5.5,4.5,10.26,10.26,0,0,0-.8,7.1c.6,2.3,2.2,4.5,4.5,5a7.39,7.39,0,0,0,2.1,0,9,9,0,0,0,7.3-6.5,8.44,8.44,0,0,0-3.5-9c-1.5-1-3.7-1.4-5.1-.2"/><path id="_Path_12" data-name="&lt;Path&gt;" class="cls-1" d="M161.16,112.31A40.08,40.08,0,0,1,150.46,95c-10.5,3.7-23.2.2-30.2-8.4-3.2-3.9-5.2-9.4-2.9-13.8,1.9-3.6,6.2-5.3,10.2-6.2a48.21,48.21,0,0,1,21.7.4c2.8.7,5.7,1.8,7.7,4a9.28,9.28,0,0,1-.9,12.6l8,1.8"/><path id="_Path_13" data-name="&lt;Path&gt;" class="cls-1" d="M127.76,82.91c.8.3,1.6.7,2.4,1a1.7,1.7,0,0,0,1.4.2c.5-.1.8-.6,1-1a20.54,20.54,0,0,0,2.9-7.8c.2-1.3.3-2.6,1.3-3.5a4.44,4.44,0,0,1,2.2-1,13.48,13.48,0,0,1,5.3-.1,4.86,4.86,0,0,1,2.8,1.3,2.42,2.42,0,0,1,.4,2.9"/><path id="_Path_14" data-name="&lt;Path&gt;" class="cls-1" d="M160.86,77.51a54.49,54.49,0,0,0,15.2-5.1"/></g><g id="_Group_3" data-name="&lt;Group&gt;"><path id="_Path_15" data-name="&lt;Path&gt;" class="cls-1" d="M347.16,422.11c-4.2-4-9.8-6.4-15.4-7.6a99.45,99.45,0,0,0-17.3-1.7,235.37,235.37,0,0,0-25.2.1c-3.2.3-6.4.6-9.6,1a169.86,169.86,0,0,0-20,3.2q-3.75.9-7.5,2.1c-13.1,4.3-25.7,11.9-36.6,20.4a66.06,66.06,0,0,0-17.2-31.5,67.57,67.57,0,0,0-31.2-17.9c20.1-19.6,45.9-32.3,72.3-41.7,24.5-8.7,50.3-15.1,76.3-14.4,15.4,17.2,22.9,40.3,29.8,62.4,1.4,4.4,2.7,8.7,4.1,13.1,1.3,4.2,2.4,9.2-.4,12.5a2.63,2.63,0,0,1-1.4.9,1,1,0,0,1-1.2-.9"/><path id="_Path_16" data-name="&lt;Path&gt;" class="cls-1" d="M191.66,379.71a6.39,6.39,0,0,1,2.4,6.1,12.81,12.81,0,0,1-2.9,6.1c8,9.3,18.9,16.4,24.9,27.2a19.89,19.89,0,0,1,10.5,3.7c12.4-16.6,82.1-22.3,101.3-15.8-.3-4.8,4-9.5,8.8-9.5a74.92,74.92,0,0,0-16-41.7c-2.2.8-5.6,2.8-7.9,2.4a21.14,21.14,0,0,1-9.1-3.2c-2.6-1.9-4.6-5-4.4-8.2-7.1.4-14.5-.2-21.6.2a58.28,58.28,0,0,0-8.3.8c-2.9.6-5.8,1.7-8.7,2.4-4.5,1.1-9.2,1.4-13.7,2.5a72.11,72.11,0,0,0-10.9,4.2c-4.8,2.1-9.6,4.3-14.4,6.4-4.5,2-9,4-13.4,6.4-5.1,2.8-10,6.1-15.2,8.9"/><path id="_Path_17" data-name="&lt;Path&gt;" class="cls-1" d="M291.46,386.11a24.11,24.11,0,0,0,6.3,4.7,3,3,0,0,0,1.5.5,4,4,0,0,0,1.5-.3,10.47,10.47,0,0,0,6.3-10.8,13,13,0,0,0-7.9-10.2,7.27,7.27,0,0,0-2.9-.7,5.91,5.91,0,0,0-4.2,2.1,9,9,0,0,0-2,4.3,14.75,14.75,0,0,0,1,9.5"/><path id="_Path_18" data-name="&lt;Path&gt;" class="cls-1" d="M214.06,402.51a8.94,8.94,0,0,0,6.9,1.7,9.89,9.89,0,0,0,6.1-3.6c1.5-1.8,2.3-4.4,1.3-6.6a7,7,0,0,0-1.3-1.7,8.82,8.82,0,0,0-9.5-1.9,8.53,8.53,0,0,0-5.1,8.2c.1,1.8,1.1,3.8,2.9,4.2"/><path id="_Path_19" data-name="&lt;Path&gt;" class="cls-1" d="M273.26,348.71a41.19,41.19,0,0,1-7.4,19,28.06,28.06,0,0,1,11.4,29.2c-1.2,4.9-4.4,9.8-9.3,10.6-4.1.6-8-1.8-11.1-4.5a48.18,48.18,0,0,1-12.7-17.6c-1.1-2.7-2-5.7-1.4-8.6a9.11,9.11,0,0,1,10.6-6.8l-3.3-7.5"/><path id="_Path_20" data-name="&lt;Path&gt;" class="cls-1" d="M269.76,393a23.35,23.35,0,0,0-.7-2.5,2,2,0,0,0-.6-1.2,1.7,1.7,0,0,0-1.4-.2,22.47,22.47,0,0,0-8,2.4,5.89,5.89,0,0,1-3.6,1.1,4.27,4.27,0,0,1-2.1-1.1,15,15,0,0,1-3.3-4.2,5.32,5.32,0,0,1-.7-3,2.33,2.33,0,0,1,2-2"/><path id="_Path_21" data-name="&lt;Path&gt;" class="cls-1" d="M245.56,369.81a54.49,54.49,0,0,0-13.2-9.1"/></g><g id="_Group_4" data-name="&lt;Group&gt;"><path id="_Path_22" data-name="&lt;Path&gt;" class="cls-1" d="M159.66,710.11c4-4.2,6.4-9.7,7.7-15.4s1.5-11.5,1.8-17.3a235.37,235.37,0,0,0,0-25.2c-.2-3.2-.6-6.4-1-9.7a193.24,193.24,0,0,0-3.1-20q-.9-3.75-2.1-7.5c-4.2-13.2-11.7-25.8-20.3-36.7a66.15,66.15,0,0,0,49.6-48.2c19.5,20.2,32.1,46,41.3,72.5,8.6,24.6,14.8,50.4,14,76.4-17.3,15.4-40.4,22.7-62.5,29.5-4.4,1.3-8.7,2.7-13.1,4-4.2,1.3-9.2,2.4-12.4-.5a2.63,2.63,0,0,1-.9-1.4.93.93,0,0,1,1-1.1"/><path id="_Path_23" data-name="&lt;Path&gt;" class="cls-1" d="M202.86,554.81a6.39,6.39,0,0,1-6.1,2.4,12.11,12.11,0,0,1-6.1-3c-9.3,8-16.5,18.8-27.3,24.8a20.78,20.78,0,0,1-3.7,10.5c16.6,12.5,22,82.2,15.3,101.3a9.37,9.37,0,0,1,9.5,8.9,75.74,75.74,0,0,0,41.8-15.8c-.8-2.2-2.7-5.6-2.4-7.9a21.14,21.14,0,0,1,3.2-9.1c1.9-2.6,5-4.6,8.2-4.4-.3-7.1.3-14.5-.1-21.6a58.28,58.28,0,0,0-.8-8.3c-.6-2.9-1.7-5.8-2.4-8.7-1.1-4.5-1.3-9.2-2.4-13.7a59.56,59.56,0,0,0-4.1-10.9c-2.1-4.8-4.2-9.6-6.4-14.4-2-4.5-4-9.1-6.3-13.4-2.8-5.2-6-10.1-8.8-15.2"/><path id="_Path_24" data-name="&lt;Path&gt;" class="cls-1" d="M196,654.51a26.94,26.94,0,0,0-4.8,6.3,3,3,0,0,0-.5,1.5,4,4,0,0,0,.3,1.5,10.55,10.55,0,0,0,10.8,6.4,13.06,13.06,0,0,0,10.2-7.8,7.27,7.27,0,0,0,.7-2.9,5.91,5.91,0,0,0-2.1-4.2,9,9,0,0,0-4.3-2,15.41,15.41,0,0,0-9.5.9"/><path id="_Path_25" data-name="&lt;Path&gt;" class="cls-1" d="M180,577.11a8.94,8.94,0,0,0-1.7,6.9,10.4,10.4,0,0,0,3.6,6.2c1.8,1.5,4.4,2.3,6.6,1.3a6.57,6.57,0,0,0,1.7-1.2,9,9,0,0,0,2-9.5,8.48,8.48,0,0,0-8.1-5.2c-1.8.1-3.8,1.1-4.2,2.9"/><path id="_Path_26" data-name="&lt;Path&gt;" class="cls-1" d="M233.46,636.51a40.28,40.28,0,0,1-19-7.5,28.16,28.16,0,0,1-29.3,11.3c-4.9-1.2-9.8-4.4-10.6-9.4-.6-4.1,1.8-8,4.5-11.1a47.47,47.47,0,0,1,17.7-12.6c2.7-1.1,5.7-2,8.6-1.4a9.09,9.09,0,0,1,6.7,10.6l7.5-3.3"/><path id="_Path_27" data-name="&lt;Path&gt;" class="cls-1" d="M189.16,632.81l2.5-.6a2,2,0,0,0,1.2-.6,1.7,1.7,0,0,0,.2-1.4,20.47,20.47,0,0,0-2.3-8,5.89,5.89,0,0,1-1.1-3.6,4.27,4.27,0,0,1,1.1-2.1,14.64,14.64,0,0,1,4.2-3.2,5.32,5.32,0,0,1,3-.7,2.34,2.34,0,0,1,2,2.1"/><path id="_Path_28" data-name="&lt;Path&gt;" class="cls-1" d="M212.46,608.71a54.87,54.87,0,0,0,9.2-13.2"/></g><g id="_Group_5" data-name="&lt;Group&gt;"><path id="_Path_29" data-name="&lt;Path&gt;" class="cls-1" d="M556.26,501.11c-5.7-1-11.7.1-17.1,2.1a102.88,102.88,0,0,0-15.4,8.1,212.85,212.85,0,0,0-21,14c-2.6,2-5,4.1-7.5,6.2a192.18,192.18,0,0,0-14.9,13.6c-1.8,1.9-3.5,3.9-5.1,5.9-8.6,10.8-15,24-19.3,37.2a67.11,67.11,0,0,0-31.7-16.9,66.09,66.09,0,0,0-35.8,2.2c6-27.4,20.6-52.2,37.5-74.6,15.7-20.7,33.7-40.2,55.9-53.9,22.4,5.9,41.3,21.1,59.2,35.7,3.5,2.9,7.1,5.8,10.6,8.7s7.1,6.3,6.5,10.6a2.36,2.36,0,0,1-.7,1.5,1,1,0,0,1-1.5-.2"/><path id="_Path_30" data-name="&lt;Path&gt;" class="cls-1" d="M403.06,551.21a6.21,6.21,0,0,1,5.3,3.8,12.89,12.89,0,0,1,.9,6.7c11.8,3.4,24.8,3.4,35.7,9.1a20.42,20.42,0,0,1,10.8-2.7c1.3-20.7,56.3-63.8,75.9-68.8a9.32,9.32,0,0,1,2.1-12.8,76.21,76.21,0,0,0-36.3-26.1c-1.4,1.8-3.2,5.4-5.3,6.4a19.13,19.13,0,0,1-9.3,2.3c-3.2-.1-6.6-1.6-8.2-4.4-5.7,4.2-12.2,7.8-17.9,12a53.79,53.79,0,0,0-6.4,5.2c-2.1,2.1-3.9,4.6-5.9,6.8-3.1,3.4-6.9,6.2-10,9.6a71.28,71.28,0,0,0-6.8,9.5c-2.8,4.4-5.6,8.8-8.5,13.3-2.7,4.2-5.3,8.3-7.7,12.7-2.8,5.2-5,10.6-7.8,15.8"/><path id="_Path_31" data-name="&lt;Path&gt;" class="cls-1" d="M490,501.71a26.11,26.11,0,0,0,7.9.5,3.17,3.17,0,0,0,1.6-.4,3.46,3.46,0,0,0,1.1-1c2.7-3.6,2.2-9.1-.6-12.5a13,13,0,0,0-12.2-4.2,8.49,8.49,0,0,0-2.8,1,6.41,6.41,0,0,0-2.4,4.1,9.49,9.49,0,0,0,.7,4.7,15.26,15.26,0,0,0,6.1,7.4"/><path id="_Path_32" data-name="&lt;Path&gt;" class="cls-1" d="M434.36,557.91a8.85,8.85,0,0,0,6.7-2.4,10,10,0,0,0,3.1-6.4c.2-2.3-.5-5-2.5-6.2a4.79,4.79,0,0,0-2-.7,8.94,8.94,0,0,0-9,3.6,8.43,8.43,0,0,0,.2,9.6c1.1,1.4,3,2.5,4.7,1.9"/><path id="_Path_33" data-name="&lt;Path&gt;" class="cls-1" d="M454.16,480.41a39.3,39.3,0,0,1,4.2,19.9,28.16,28.16,0,0,1,25.6,18.2c1.7,4.7,1.7,10.6-2,14-3,2.8-7.6,2.9-11.7,2.4a48.56,48.56,0,0,1-20.3-7.8c-2.4-1.7-4.8-3.7-5.9-6.4a9.12,9.12,0,0,1,5.1-11.5c-2.3-1.5-4.6-3-6.9-4.4"/><path id="_Path_34" data-name="&lt;Path&gt;" class="cls-1" d="M475.66,519.41c-.6-.6-1.3-1.2-1.9-1.8a1.85,1.85,0,0,0-1.2-.7,2.23,2.23,0,0,0-1.3.6,20.94,20.94,0,0,0-5.4,6.4c-.6,1.1-1.2,2.4-2.4,2.9a4.83,4.83,0,0,1-2.4.2,12.39,12.39,0,0,1-5-1.7,5,5,0,0,1-2.2-2.1,2.27,2.27,0,0,1,.6-2.8"/><path id="_Path_35" data-name="&lt;Path&gt;" class="cls-1" d="M442.66,513.31a57.22,57.22,0,0,0-16-.4"/></g><g id="_Group_6" data-name="&lt;Group&gt;"><path id="_Path_36" data-name="&lt;Path&gt;" class="cls-1" d="M367.76,356.41a32.45,32.45,0,0,0,16.8,3.5,91.88,91.88,0,0,0,17.2-2.7,230.4,230.4,0,0,0,24.4-6.4c3.1-1,6.1-2.2,9.1-3.4a152.37,152.37,0,0,0,18.5-8.1c2.3-1.2,4.5-2.5,6.7-3.9,11.7-7.4,22-17.9,30.3-28.9a65.95,65.95,0,0,0,59.1,35.7c-14.6,24-36.4,42.7-59.7,58.4-21.6,14.5-44.9,27.1-70.3,32.9-19.3-12.9-32.2-33.3-44.4-53l-7.2-11.7c-2.3-3.7-4.6-8.3-2.7-12.2a2.58,2.58,0,0,1,1.1-1.2,1.11,1.11,0,0,1,1.4.6"/><path id="_Path_37" data-name="&lt;Path&gt;" class="cls-1" d="M529,358.71a6.14,6.14,0,0,1-3.8-5.3,14.1,14.1,0,0,1,1.3-6.7c-10.1-7-22.4-11.2-30.9-20.1a19.16,19.16,0,0,1-11.1-1c-7.9,19.2-74,42.1-94.1,40.5a9.31,9.31,0,0,1-6.2,11.4,75.91,75.91,0,0,0,25.9,36.4c1.9-1.3,4.7-4.1,7.1-4.3a22.17,22.17,0,0,1,9.6.8c3,1.2,5.7,3.6,6.3,6.8,6.7-2.1,14.1-3.4,20.8-5.5a56.41,56.41,0,0,0,7.8-2.9c2.7-1.3,5.2-3.1,7.8-4.5,4.1-2.2,8.6-3.6,12.6-5.8a70.6,70.6,0,0,0,9.5-6.7c4.1-3.3,8.2-6.5,12.3-9.8,3.9-3.1,7.7-6.2,11.4-9.5,4.3-4,8.2-8.4,12.5-12.4"/><path id="_Path_38" data-name="&lt;Path&gt;" class="cls-1" d="M430.76,377.41a24.47,24.47,0,0,0-7.3-3,8.75,8.75,0,0,0-1.6-.2,3.51,3.51,0,0,0-1.4.6c-3.7,2.6-5,7.8-3.4,12.1a12.87,12.87,0,0,0,10.2,7.9,6.1,6.1,0,0,0,3-.1,5.4,5.4,0,0,0,3.5-3.1,10.66,10.66,0,0,0,.9-4.7,15.51,15.51,0,0,0-3.3-9"/><path id="_Path_39" data-name="&lt;Path&gt;" class="cls-1" d="M501.56,342.31a8.78,8.78,0,0,0-7.1.1,10.76,10.76,0,0,0-5.1,5c-1,2.1-1.1,4.9.4,6.7a6.53,6.53,0,0,0,1.6,1.3,9,9,0,0,0,9.7-.5,8.37,8.37,0,0,0,2.9-9.2c-.6-1.7-2-3.4-3.8-3.4"/><path id="_Path_40" data-name="&lt;Path&gt;" class="cls-1" d="M457.66,409.11a39.73,39.73,0,0,1,2.5-20.2,28,28,0,0,1-18.3-25.5c-.1-5,1.8-10.6,6.4-12.6,3.8-1.6,8.2-.3,11.9,1.6a47.56,47.56,0,0,1,16.6,13.9c1.8,2.4,3.3,5,3.5,8a9.13,9.13,0,0,1-8.6,9.2c1.7,2.1,3.4,4.3,5.1,6.4"/><path id="_Path_41" data-name="&lt;Path&gt;" class="cls-1" d="M450,365.31c.4.8.8,1.5,1.3,2.3.2.4.5.9.9,1a2.25,2.25,0,0,0,1.4-.1,21.23,21.23,0,0,0,7.2-4.3,6,6,0,0,1,3.2-2,3.79,3.79,0,0,1,2.3.6,14.64,14.64,0,0,1,4.2,3.2,5,5,0,0,1,1.4,2.8,2.34,2.34,0,0,1-1.5,2.5"/><path id="_Path_42" data-name="&lt;Path&gt;" class="cls-1" d="M479.16,381.71a53.61,53.61,0,0,0,15.1,5.5"/></g><g id="_Group_7" data-name="&lt;Group&gt;"><path id="_Path_43" data-name="&lt;Path&gt;" class="cls-1" d="M395.36,308.21c4-4.2,6.4-9.7,7.7-15.4a91.51,91.51,0,0,0,1.8-17.3c.3-8.4.7-16.8.1-25.2-.2-3.2-.6-6.4-1-9.7a169.58,169.58,0,0,0-3.1-20q-.9-3.75-2.1-7.5c-4.2-13.2-11.7-25.8-20.2-36.7a66.49,66.49,0,0,0,31.6-17,67.3,67.3,0,0,0,18.1-31c19.5,20.2,32,46.1,41.2,72.6,8.5,24.6,14.7,50.4,13.9,76.4-17.3,15.3-40.4,22.6-62.6,29.4-4.4,1.3-8.8,2.7-13.1,4s-9.2,2.4-12.4-.5a2.63,2.63,0,0,1-.9-1.4.93.93,0,0,1,1-1.1"/><path id="_Path_44" data-name="&lt;Path&gt;" class="cls-1" d="M438.76,153a6.39,6.39,0,0,1-6.1,2.4,12.11,12.11,0,0,1-6.1-3c-9.4,8-16.6,18.8-27.4,24.7a20,20,0,0,1-3.8,10.5c16.6,12.6,21.8,82.3,15.1,101.4a9.37,9.37,0,0,1,9.5,8.9,74.87,74.87,0,0,0,41.8-15.7c-.8-2.2-2.7-5.6-2.4-7.9a21.14,21.14,0,0,1,3.2-9.1,9.7,9.7,0,0,1,8.2-4.4c-.3-7.1.3-14.5,0-21.6a46.66,46.66,0,0,0-.8-8.3c-.6-2.9-1.7-5.8-2.4-8.7-1.1-4.5-1.3-9.2-2.4-13.7a59.56,59.56,0,0,0-4.1-10.9l-6.3-14.4c-2-4.5-4-9.1-6.3-13.4-2.8-5.2-6-10.1-8.8-15.2"/><path id="_Path_45" data-name="&lt;Path&gt;" class="cls-1" d="M431.76,252.71A25,25,0,0,0,427,259a4.71,4.71,0,0,0-.6,1.5,4,4,0,0,0,.3,1.5c1.5,4.2,6.3,6.9,10.8,6.4a13.06,13.06,0,0,0,10.2-7.8,7.27,7.27,0,0,0,.7-2.9,5.73,5.73,0,0,0-2.1-4.2,10.18,10.18,0,0,0-4.3-2.1,15.41,15.41,0,0,0-9.5.9"/><path id="_Path_46" data-name="&lt;Path&gt;" class="cls-1" d="M415.86,175.31a8.94,8.94,0,0,0-1.7,6.9,10.4,10.4,0,0,0,3.6,6.2c1.8,1.5,4.4,2.3,6.6,1.3a6.57,6.57,0,0,0,1.7-1.2,9,9,0,0,0,2-9.5,8.48,8.48,0,0,0-8.1-5.2c-1.8.1-3.8,1.1-4.2,2.9"/><path id="_Path_47" data-name="&lt;Path&gt;" class="cls-1" d="M469.26,234.81a39.67,39.67,0,0,1-18.9-7.6,28.1,28.1,0,0,1-29.3,11.2c-4.8-1.2-9.8-4.5-10.6-9.4-.6-4.1,1.8-8,4.5-11.1a46.13,46.13,0,0,1,17.7-12.5c2.7-1.1,5.7-2,8.6-1.3a9.14,9.14,0,0,1,6.7,10.7l7.5-3.3"/><path id="_Path_48" data-name="&lt;Path&gt;" class="cls-1" d="M425,231l2.5-.6a2,2,0,0,0,1.2-.6,1.7,1.7,0,0,0,.2-1.4,20.47,20.47,0,0,0-2.3-8,5.89,5.89,0,0,1-1.1-3.6,3.75,3.75,0,0,1,1.2-2.1,14.64,14.64,0,0,1,4.2-3.2,5.32,5.32,0,0,1,3-.7,2.34,2.34,0,0,1,2,2.1"/><path id="_Path_49" data-name="&lt;Path&gt;" class="cls-1" d="M448.26,207a54.32,54.32,0,0,0,9.2-13.1"/></g><g id="_Group_8" data-name="&lt;Group&gt;"><path id="_Path_50" data-name="&lt;Path&gt;" class="cls-1" d="M79.76,164.31c4.4,3.8,10,5.9,15.8,6.9a91.89,91.89,0,0,0,17.4.9,234.93,234.93,0,0,0,25.2-1.2q4.8-.6,9.6-1.5a169.73,169.73,0,0,0,19.8-4.1c2.5-.7,5-1.6,7.4-2.5,12.9-4.8,25.2-13,35.6-22a66,66,0,0,0,18.6,30.7,67.07,67.07,0,0,0,31.9,16.5c-19.2,20.5-44.4,34.3-70.4,44.8-24.1,9.8-49.6,17.3-75.6,17.7-16.2-16.5-24.7-39.2-32.5-61-1.6-4.3-3.1-8.6-4.7-12.9-1.5-4.1-2.8-9.1-.1-12.5.4-.4.8-.9,1.4-.9a1,1,0,0,1,1.2.9"/><path id="_Path_51" data-name="&lt;Path&gt;" class="cls-1" d="M237,199.71a6.33,6.33,0,0,1-2.7-6,12.66,12.66,0,0,1,2.7-6.3c-8.4-8.9-19.6-15.6-26.1-26.1a20.3,20.3,0,0,1-10.7-3.2c-11.7,17.2-81,26-100.5,20.3a9.39,9.39,0,0,1-8.4,9.9,75.62,75.62,0,0,0,17.8,41c2.1-.9,5.5-3,7.8-2.8a19.8,19.8,0,0,1,9.2,2.8c2.7,1.8,4.8,4.7,4.8,8,7-.7,14.5-.5,21.5-1.1a55.88,55.88,0,0,0,8.2-1.2c2.9-.7,5.7-2,8.6-2.8,4.4-1.3,9.1-1.8,13.5-3.1a71.87,71.87,0,0,0,10.7-4.6c4.7-2.4,9.4-4.7,14.1-7.1,4.4-2.2,8.8-4.4,13.1-7,5-3,9.7-6.5,14.8-9.6"/><path id="_Path_52" data-name="&lt;Path&gt;" class="cls-1" d="M137.06,197.81a24,24,0,0,0-6.5-4.4,4.42,4.42,0,0,0-1.5-.5,4,4,0,0,0-1.5.3,10.74,10.74,0,0,0-5.9,11.1c.6,4.5,4.1,8.2,8.3,9.8a7.17,7.17,0,0,0,2.9.6,5.75,5.75,0,0,0,4.1-2.3,10,10,0,0,0,1.8-4.4,14.89,14.89,0,0,0-1.4-9.5"/><path id="_Path_53" data-name="&lt;Path&gt;" class="cls-1" d="M213.66,178a9.11,9.11,0,0,0-7-1.4,10.09,10.09,0,0,0-6,3.9c-1.4,1.9-2.1,4.5-1,6.6a5.09,5.09,0,0,0,1.3,1.6,8.9,8.9,0,0,0,9.6,1.5,8.5,8.5,0,0,0,4.8-8.4c-.2-1.8-1.3-3.7-3.1-4.1"/><path id="_Path_54" data-name="&lt;Path&gt;" class="cls-1" d="M156.86,234.41a40.16,40.16,0,0,1,6.6-19.3c-9.5-5.8-14.9-17.8-12.7-28.7,1-4.9,4-10,8.9-11,4-.8,8.1,1.4,11.3,4a47.36,47.36,0,0,1,13.4,17c1.2,2.7,2.2,5.6,1.8,8.5a9.22,9.22,0,0,1-10.3,7.3c1.2,2.4,2.4,4.9,3.7,7.3"/><path id="_Path_55" data-name="&lt;Path&gt;" class="cls-1" d="M158.36,189.91c.3.8.5,1.7.8,2.5a1.85,1.85,0,0,0,.7,1.2,2.2,2.2,0,0,0,1.4.2,21.8,21.8,0,0,0,7.9-2.7c1.1-.6,2.2-1.4,3.5-1.3a4.12,4.12,0,0,1,2.1,1,13,13,0,0,1,3.4,4,5.21,5.21,0,0,1,.8,3,2.25,2.25,0,0,1-2,2.1"/><path id="_Path_56" data-name="&lt;Path&gt;" class="cls-1" d="M183.56,212a53.51,53.51,0,0,0,13.6,8.5"/></g><g id="_Group_9" data-name="&lt;Group&gt;"><path id="_Path_57" data-name="&lt;Path&gt;" class="cls-1" d="M302.76,619.31c4.4,3.8,10,5.9,15.8,6.9a91.89,91.89,0,0,0,17.4.9,234.93,234.93,0,0,0,25.2-1.2q4.8-.6,9.6-1.5a169.73,169.73,0,0,0,19.8-4.1c2.5-.7,5-1.6,7.4-2.5,12.9-4.8,25.2-13,35.6-22a66,66,0,0,0,18.6,30.7,67.07,67.07,0,0,0,31.9,16.5c-19.2,20.5-44.4,34.3-70.4,44.8-24.1,9.8-49.6,17.3-75.6,17.7-16.2-16.5-24.7-39.2-32.5-61-1.6-4.3-3.1-8.6-4.7-12.9-1.5-4.1-2.8-9.1-.1-12.5.4-.4.8-.9,1.4-.9s1.2.3,1.2.9"/><path id="_Path_58" data-name="&lt;Path&gt;" class="cls-1" d="M460,654.71a6.33,6.33,0,0,1-2.7-6,12.66,12.66,0,0,1,2.7-6.3c-8.4-8.9-19.6-15.6-26.1-26.1a20.3,20.3,0,0,1-10.7-3.2c-11.7,17.2-81,26-100.5,20.3a9.39,9.39,0,0,1-8.4,9.9,75.62,75.62,0,0,0,17.8,41c2.1-.9,5.5-3,7.8-2.8a19.8,19.8,0,0,1,9.2,2.8c2.7,1.8,4.8,4.7,4.8,8,7-.7,14.5-.5,21.5-1.1a55.88,55.88,0,0,0,8.2-1.2c2.9-.7,5.7-2,8.6-2.8,4.4-1.3,9.1-1.8,13.5-3.1a71.87,71.87,0,0,0,10.7-4.6c4.7-2.4,9.4-4.7,14.1-7.1,4.4-2.2,8.8-4.4,13.1-7,5-3,9.7-6.5,14.8-9.6"/><path id="_Path_59" data-name="&lt;Path&gt;" class="cls-1" d="M360.06,652.81a24,24,0,0,0-6.5-4.4,4.42,4.42,0,0,0-1.5-.5,4,4,0,0,0-1.5.3,10.74,10.74,0,0,0-5.9,11.1,13.11,13.11,0,0,0,8.3,9.8,7.17,7.17,0,0,0,2.9.6,5.75,5.75,0,0,0,4.1-2.3,10,10,0,0,0,1.8-4.4,14.89,14.89,0,0,0-1.4-9.5"/><path id="_Path_60" data-name="&lt;Path&gt;" class="cls-1" d="M436.56,633a9.11,9.11,0,0,0-7-1.4,10.09,10.09,0,0,0-6,3.9c-1.4,1.9-2.1,4.5-1,6.6a5.09,5.09,0,0,0,1.3,1.6,8.9,8.9,0,0,0,9.6,1.5,8.58,8.58,0,0,0,4.8-8.4c-.2-1.8-1.3-3.7-3.1-4.1"/><path id="_Path_61" data-name="&lt;Path&gt;" class="cls-1" d="M379.86,689.31a40.16,40.16,0,0,1,6.6-19.3c-9.5-5.8-14.9-17.8-12.7-28.7,1-4.9,4-10,8.9-11,4-.8,8.1,1.4,11.3,4a47.36,47.36,0,0,1,13.4,17c1.2,2.7,2.2,5.6,1.8,8.5a9.22,9.22,0,0,1-10.3,7.3c1.2,2.4,2.4,4.9,3.7,7.3"/><path id="_Path_62" data-name="&lt;Path&gt;" class="cls-1" d="M381.36,644.91c.3.8.5,1.7.8,2.5a1.85,1.85,0,0,0,.7,1.2,2.2,2.2,0,0,0,1.4.2,21.8,21.8,0,0,0,7.9-2.7c1.1-.6,2.2-1.4,3.5-1.3a4.12,4.12,0,0,1,2.1,1,13,13,0,0,1,3.4,4,5.21,5.21,0,0,1,.8,3,2.25,2.25,0,0,1-2,2.1"/><path id="_Path_63" data-name="&lt;Path&gt;" class="cls-1" d="M406.56,667a53.51,53.51,0,0,0,13.6,8.5"/></g><g id="_Group_10" data-name="&lt;Group&gt;"><g id="_Group_11" data-name="&lt;Group&gt;"><path id="_Path_64" data-name="&lt;Path&gt;" class="cls-2" d="M60,234.71a29.16,29.16,0,0,0,6.9,13.1,80.17,80.17,0,0,0,11.1,9.9,194.6,194.6,0,0,0,17.5,12.7c2.3,1.5,4.8,2.8,7.2,4.2a147.47,147.47,0,0,0,15.3,7.9,65.62,65.62,0,0,0,6.2,2.3c11.2,3.7,23.6,4.8,35.3,4.3a57.75,57.75,0,0,0-3.6,30.5,58.63,58.63,0,0,0,12.7,28.1c-23.5,3.4-47.5-.8-70.4-7.7-21.2-6.4-42.1-15-59.7-28.6-2.2-19.8,4-39.5,10.1-58.3l3.6-11.1c1.1-3.5,2.8-7.6,6.4-8.4a2.2,2.2,0,0,1,1.4.1.86.86,0,0,1,.3,1.2"/><path id="_Path_65" data-name="&lt;Path&gt;" class="cls-2" d="M117.66,338.81c4.1.9,8.2,1.8,12.4,2.3,4.9.7,9.9.9,14.8,1.5"/><path id="_Path_66" data-name="&lt;Path&gt;" class="cls-2" d="M99.66,280.91c-15.1-8.7-29-19.2-33.7-26a7.83,7.83,0,0,1-10.8,2.1,65.69,65.69,0,0,0-9.5,37c1.9.6,5.2.9,6.6,2.3a17.73,17.73,0,0,1,4.7,6.8,8.49,8.49,0,0,1-1,7.9c5,3.3,9.9,7.5,15,10.8a54.14,54.14,0,0,0,6.1,3.6c2.3,1.1,4.8,1.7,7.2,2.7a46.57,46.57,0,0,1,4.5,2.2"/><path id="_Path_67" data-name="&lt;Path&gt;" class="cls-2" d="M146.46,342.71a5.37,5.37,0,0,1,1.3-5.4,11.79,11.79,0,0,1,5-2.8c-1-10.5-5-21-3.8-31.4a16.77,16.77,0,0,1-5.4-7.9c-5.1,1.6-13.4-.2-22.8-3.9"/><path id="_Path_68" data-name="&lt;Path&gt;" class="cls-2" d="M80.76,287.81a22.2,22.2,0,0,0-2-6.5,2.84,2.84,0,0,0-.8-1.1,3.37,3.37,0,0,0-1.2-.6,8.79,8.79,0,0,0-9.7,4.3,11.34,11.34,0,0,0,.4,11,6.14,6.14,0,0,0,1.7,1.9,4.89,4.89,0,0,0,3.9.7,8.21,8.21,0,0,0,3.5-2,13,13,0,0,0,4-7.1"/><path id="_Path_69" data-name="&lt;Path&gt;" class="cls-2" d="M142.16,315.61a8.25,8.25,0,0,0-3.9-4.7,8.84,8.84,0,0,0-6-.6c-1.9.5-3.8,1.9-4.1,3.9a5.44,5.44,0,0,0,0,1.8,7.91,7.91,0,0,0,5.6,6.2,7,7,0,0,0,7.5-3.1c.8-1.3,1.1-3.2.1-4.4"/><path id="_Path_70" data-name="&lt;Path&gt;" class="cls-2" d="M75,322.91a33.5,33.5,0,0,1,14.5-9.4,24,24,0,0,1,6.5-26,13.6,13.6,0,0,1,3.8-2.4"/></g><path id="_Path_71" data-name="&lt;Path&gt;" class="cls-2" d="M36.36,312.21c-6.1,4.4-13.4,6.7-20.5,9-3.2,1-6.3,2-9.5,3"/><path id="_Path_72" data-name="&lt;Path&gt;" class="cls-2" d="M54.06,234.41c-5.6,2.1-11.1,4.3-16.7,6.4a10.46,10.46,0,0,0-3.7,2.1c-7.6,8.4-8.3,20.8-13.8,30.7a135,135,0,0,0-6.9,13c-1.1,2.7-2,5.4-3.2,8.1s-2.6,5.4-3.8,8.2A47.87,47.87,0,0,0,2.16,325c50.2,40.1,130.5,39.6,132.3,39a92.09,92.09,0,0,0,9.5-4.6,220,220,0,0,1,24.7-10"/><path id="_Path_73" data-name="&lt;Path&gt;" class="cls-2" d="M99.86,271.81a117.39,117.39,0,0,1-.5,13.3c-1.6,15.6-6.4,31-10.7,46.2a15.86,15.86,0,0,1-1.6,4.3c-1.1,1.9-3,3.2-4.8,4.5-6.1,4.4-12.1,8.8-18.2,13.2-.2.1-.4.2-.5.1s0-.4.2-.3"/><path id="_Path_74" data-name="&lt;Path&gt;" class="cls-2" d="M121.16,282.41c-.8,19.2-1.7,38.3-3.4,57.4a14.2,14.2,0,0,1-.8,4.1c-1.3,3.4-4.8,5.3-7.9,7.2a94.33,94.33,0,0,0-14.4,10.7"/><path id="_Path_75" data-name="&lt;Path&gt;" class="cls-2" d="M21.76,320.21a58,58,0,0,0,28.9,15"/><path id="_Path_76" data-name="&lt;Path&gt;" class="cls-2" d="M20.76,317.11c-1.7-5.2.6-28,5.2-37.7"/><path id="_Path_77" data-name="&lt;Path&gt;" class="cls-2" d="M46.26,239.31c-7.6,16.5-16.4,35.2-16.7,53.4"/><path id="_Path_78" data-name="&lt;Path&gt;" class="cls-2" d="M147.26,356.71a84.1,84.1,0,0,1-27.4-1.2"/><path id="_Path_79" data-name="&lt;Path&gt;" class="cls-2" d="M69.86,345.31a34.71,34.71,0,0,1-12.9-4.8l.9,1.2"/></g><g id="_Group_12" data-name="&lt;Group&gt;"><g id="_Group_13" data-name="&lt;Group&gt;"><path id="_Path_80" data-name="&lt;Path&gt;" class="cls-2" d="M310.76,594.11a27.49,27.49,0,0,0-5.5-13.7,87.07,87.07,0,0,0-10-11,199.4,199.4,0,0,0-16.1-14.4c-2.2-1.7-4.4-3.3-6.7-4.9a148,148,0,0,0-14.4-9.4c-1.9-1.1-3.9-2-6-3-10.7-4.8-23-7.2-34.6-8a57.49,57.49,0,0,0-2.9-59.3c23.7-1,47.2,5.7,69.2,15,20.4,8.6,40.3,19.3,56.4,34.7.1,19.9-8.1,38.9-16.1,56.9-1.6,3.6-3.2,7.1-4.7,10.7-1.5,3.4-3.6,7.3-7.2,7.7a2.2,2.2,0,0,1-1.4-.2,1,1,0,0,1-.2-1.3"/><path id="_Path_81" data-name="&lt;Path&gt;" class="cls-2" d="M264.16,484.61c-4-1.3-8-2.6-12.1-3.6-4.8-1.2-9.8-1.9-14.6-3"/><path id="_Path_82" data-name="&lt;Path&gt;" class="cls-2" d="M276.16,544.11c14.1,10.2,26.8,22.1,30.8,29.3a7.75,7.75,0,0,1,10.9-1,65.14,65.14,0,0,0,13.3-35.8c-1.8-.8-5.1-1.5-6.4-3a16.89,16.89,0,0,1-4-7.3,8.65,8.65,0,0,1,1.8-7.8c-4.7-3.8-9.1-8.5-13.8-12.3a46.46,46.46,0,0,0-5.7-4.2c-2.2-1.3-4.6-2.2-6.9-3.4-1.5-.8-2.9-1.7-4.3-2.6"/><path id="_Path_83" data-name="&lt;Path&gt;" class="cls-2" d="M236,477.71a5.46,5.46,0,0,1-1.9,5.3,10.39,10.39,0,0,1-5.3,2.2c-.1,10.6,2.8,21.4.5,31.7a17.82,17.82,0,0,1,4.6,8.4c5.3-1.1,13.3,1.6,22.3,6.3"/><path id="_Path_84" data-name="&lt;Path&gt;" class="cls-2" d="M295.66,539.11a24.16,24.16,0,0,0,1.3,6.6,4.49,4.49,0,0,0,.6,1.2,4.13,4.13,0,0,0,1.1.7,8.73,8.73,0,0,0,10.1-3.3,11.32,11.32,0,0,0,.7-11,7.71,7.71,0,0,0-1.4-2.1,5.19,5.19,0,0,0-3.8-1.1,8.21,8.21,0,0,0-3.7,1.6,13,13,0,0,0-4.7,6.6"/><path id="_Path_85" data-name="&lt;Path&gt;" class="cls-2" d="M237.46,505.11a7.75,7.75,0,0,0,3.4,5,8.19,8.19,0,0,0,5.9,1.2c2-.3,4-1.5,4.5-3.4a5.54,5.54,0,0,0,.2-1.8,7.9,7.9,0,0,0-4.9-6.7,6.88,6.88,0,0,0-7.8,2.3c-.9,1.2-1.4,3-.5,4.3"/><path id="_Path_86" data-name="&lt;Path&gt;" class="cls-2" d="M305.06,504.81a33.38,33.38,0,0,1-15.3,7.8,24,24,0,0,1-9.2,25.2,18.7,18.7,0,0,1-4,2"/></g><path id="_Path_87" data-name="&lt;Path&gt;" class="cls-2" d="M342.36,519.51c6.5-3.7,14-5.3,21.4-6.8,3.2-.7,6.5-1.4,9.7-2"/><path id="_Path_88" data-name="&lt;Path&gt;" class="cls-2" d="M316.66,595c5.7-1.5,11.5-3.1,17.2-4.6a10.54,10.54,0,0,0,3.9-1.7c8.5-7.5,10.4-19.9,16.9-29.1a144.34,144.34,0,0,0,8.2-12.2c1.4-2.5,2.6-5.2,4-7.7s3.2-5.1,4.7-7.7a48,48,0,0,0,6.1-21.6c-45.7-45.1-125.7-53-127.5-52.5-3.4.9-6.6,2.3-9.9,3.5a226.93,226.93,0,0,1-25.6,7.4"/><path id="_Path_89" data-name="&lt;Path&gt;" class="cls-2" d="M275,553.11a99.93,99.93,0,0,1,1.9-13.2c3.2-15.4,9.6-30.1,15.4-44.8a15.9,15.9,0,0,1,2.1-4.1,17.21,17.21,0,0,1,5.2-4c6.5-3.7,13-7.5,19.5-11.2.2-.1.4-.2.5-.1s-.1.4-.2.3"/><path id="_Path_90" data-name="&lt;Path&gt;" class="cls-2" d="M254.86,540.41c2.8-19,5.7-37.9,9.4-56.8a13.27,13.27,0,0,1,1.2-4c1.7-3.2,5.3-4.8,8.6-6.3a85.91,85.91,0,0,0,15.4-9.2"/><path id="_Path_91" data-name="&lt;Path&gt;" class="cls-2" d="M357.56,513.11a58,58,0,0,0-27.2-17.9"/><path id="_Path_92" data-name="&lt;Path&gt;" class="cls-2" d="M358.36,516.21c1.1,5.4-3.5,27.8-9.1,37"/><path id="_Path_93" data-name="&lt;Path&gt;" class="cls-2" d="M324.86,591c9.3-15.6,20-33.3,22.2-51.4"/><path id="_Path_94" data-name="&lt;Path&gt;" class="cls-2" d="M236.56,463.71a85.66,85.66,0,0,1,27.1,4.1"/><path id="_Path_95" data-name="&lt;Path&gt;" class="cls-2" d="M312.46,483.11a34.62,34.62,0,0,1,12.3,6.1,14.8,14.8,0,0,1-.8-1.3"/></g><g id="_Group_14" data-name="&lt;Group&gt;"><g id="_Group_15" data-name="&lt;Group&gt;"><path id="_Path_96" data-name="&lt;Path&gt;" class="cls-2" d="M356.66,152.21a27.67,27.67,0,0,0-10.9-10,86.72,86.72,0,0,0-13.8-5.6,188.57,188.57,0,0,0-20.7-6.1q-4-.9-8.1-1.5a143.17,143.17,0,0,0-17.1-2.3c-2.2-.1-4.4-.2-6.7-.1-11.7.3-23.8,3.4-34.7,7.7a58.28,58.28,0,0,0-6.8-30A57.33,57.33,0,0,0,216.46,82c21-11.1,45.1-15.1,68.9-16.3,22.1-1.1,44.7,0,65.8,7,8.7,17.9,9.5,38.5,10,58.3l.3,11.7c.1,3.7-.1,8.1-3.2,10.1a1.79,1.79,0,0,1-1.4.4.85.85,0,0,1-.7-1.1"/><path id="_Path_97" data-name="&lt;Path&gt;" class="cls-2" d="M267.46,73.41c-4.2.5-8.3,1.1-12.4,2-4.9,1-9.6,2.5-14.5,3.5"/><path id="_Path_98" data-name="&lt;Path&gt;" class="cls-2" d="M303.86,121.91c17.1,3.1,33.7,8.4,40.4,13.2a7.81,7.81,0,0,1,9.4-5.6,64.38,64.38,0,0,0-3.5-38c-2,.1-5.2.9-7,0a19.13,19.13,0,0,1-6.7-4.8c-1.7-2.2-2.6-5.2-1.7-7.8-5.9-1.4-11.9-3.7-17.7-5.2a41.13,41.13,0,0,0-7-1.3c-2.5-.2-5.1,0-7.7-.1-1.7-.1-3.3-.3-5-.5"/><path id="_Path_99" data-name="&lt;Path&gt;" class="cls-2" d="M239.06,79.41a5.61,5.61,0,0,1,.6,5.6,10.53,10.53,0,0,1-3.8,4.3c4.4,9.6,11.7,18.1,14.1,28.3a18.19,18.19,0,0,1,7.8,5.6c4.3-3.2,12.7-4.3,22.8-3.9"/><path id="_Path_100" data-name="&lt;Path&gt;" class="cls-2" d="M319.36,109.11a24.06,24.06,0,0,0,4.1,5.4,4.44,4.44,0,0,0,1.1.8,2,2,0,0,0,1.3.1,8.7,8.7,0,0,0,7.7-7.3,11.43,11.43,0,0,0-4.1-10.3,9.8,9.8,0,0,0-2.2-1.3,4.53,4.53,0,0,0-3.9.7,9.06,9.06,0,0,0-2.7,3.1,13.06,13.06,0,0,0-1.4,8"/><path id="_Path_101" data-name="&lt;Path&gt;" class="cls-2" d="M252.16,103.51a7.88,7.88,0,0,0,5.2,3.1,8.7,8.7,0,0,0,5.9-1.4,5.59,5.59,0,0,0,2.6-5.1,4.92,4.92,0,0,0-.6-1.7,7.76,7.76,0,0,0-7.4-3.9,7.15,7.15,0,0,0-6.1,5.4,3.92,3.92,0,0,0,1.4,4.1"/><path id="_Path_102" data-name="&lt;Path&gt;" class="cls-2" d="M313.06,74.11a33,33,0,0,1-10.5,13.7,24,24,0,0,1,2.6,26.7,15.56,15.56,0,0,1-2.7,3.5"/></g><path id="_Path_103" data-name="&lt;Path&gt;" class="cls-2" d="M353,71.21c4.3-6.2,10.4-10.8,16.3-15.4,2.6-2,5.3-4,7.9-6"/><path id="_Path_104" data-name="&lt;Path&gt;" class="cls-2" d="M362.36,150.51c4.5-3.9,9-7.7,13.6-11.6a9,9,0,0,0,2.8-3.3c4.4-10.4.9-22.4,2.8-33.6.8-4.9,1.9-9.7,2.2-14.6.2-2.9.1-5.8.3-8.7s.7-6,.9-9a47.87,47.87,0,0,0-3.8-22.1c-60.7-21-136.2,6.3-137.7,7.5a74.92,74.92,0,0,0-7.4,7.5,237.44,237.44,0,0,1-19.9,17.7"/><path id="_Path_105" data-name="&lt;Path&gt;" class="cls-2" d="M306.66,130.61a116.67,116.67,0,0,1-4-12.7c-3.7-15.3-4.3-31.3-5.4-47.1a17.72,17.72,0,0,1,.1-4.6,16.06,16.06,0,0,1,3-5.8c4.2-6.2,8.5-12.3,12.7-18.5a.55.55,0,0,1,.5-.3c.2,0,.1.4-.1.3"/><path id="_Path_106" data-name="&lt;Path&gt;" class="cls-2" d="M283.06,127.71c-5.7-18.3-11.2-36.7-16-55.3a18.51,18.51,0,0,1-.7-4.1c.1-3.6,2.7-6.6,5.1-9.4a82.07,82.07,0,0,0,9.9-14.9"/><path id="_Path_107" data-name="&lt;Path&gt;" class="cls-2" d="M364.06,58.91a58.43,58.43,0,0,0-32.2-4.5"/><path id="_Path_108" data-name="&lt;Path&gt;" class="cls-2" d="M366.06,61.41c3.3,4.4,8.8,26.5,7.7,37.3"/><path id="_Path_109" data-name="&lt;Path&gt;" class="cls-2" d="M368.06,143.31c1.6-18.1,3.7-38.7-2.1-55.9"/><path id="_Path_110" data-name="&lt;Path&gt;" class="cls-2" d="M233.56,66.41a83,83,0,0,1,26.2-8"/><path id="_Path_111" data-name="&lt;Path&gt;" class="cls-2" d="M310.36,51.21a33.78,33.78,0,0,1,13.8.2,14.8,14.8,0,0,0-1.3-.8"/></g><g id="_Group_16" data-name="&lt;Group&gt;"><g id="_Group_17" data-name="&lt;Group&gt;"><path id="_Path_112" data-name="&lt;Path&gt;" class="cls-2" d="M47.66,539.91a28.39,28.39,0,0,0,5.5-13.8,82.26,82.26,0,0,0,.3-14.9,192.66,192.66,0,0,0-1.7-21.5c-.4-2.7-1-5.4-1.5-8.1a141.32,141.32,0,0,0-4-16.8,65.62,65.62,0,0,0-2.3-6.2c-4.4-10.9-11.7-21-19.6-29.6a57.44,57.44,0,0,0,38.7-45c17.9,15.6,30.3,36.6,39.9,58.5,8.9,20.3,16,41.7,17,64-13.6,14.5-32.6,22.6-50.8,30.2l-10.8,4.5c-3.4,1.4-7.6,2.8-10.6.6a2.1,2.1,0,0,1-.8-1.1.92.92,0,0,1,.7-1.1"/><path id="_Path_113" data-name="&lt;Path&gt;" class="cls-2" d="M89.36,428.41c-2-3.7-4-7.4-6.3-10.9-2.7-4.2-5.8-8.1-8.5-12.3"/><path id="_Path_114" data-name="&lt;Path&gt;" class="cls-2" d="M57.06,479.71c3.2,17.1,4.2,34.5,2.2,42.5a7.82,7.82,0,0,1,8.6,6.8,64.79,64.79,0,0,0,34.3-16.9c-.8-1.8-2.7-4.6-2.6-6.6a18.3,18.3,0,0,1,2.1-8,8.45,8.45,0,0,1,6.6-4.4c-.8-6-.8-12.4-1.5-18.4a56.92,56.92,0,0,0-1.2-7c-.7-2.5-1.8-4.8-2.6-7.2-.5-1.6-.9-3.2-1.3-4.8"/><path id="_Path_115" data-name="&lt;Path&gt;" class="cls-2" d="M73.56,404a5.45,5.45,0,0,1-5,2.5,11.84,11.84,0,0,1-5.4-2c-7.4,7.6-12.7,17.4-21.4,23.3a17.36,17.36,0,0,1-2.5,9.3c4.5,2.9,8.6,10.4,11.8,19.9"/><path id="_Path_116" data-name="&lt;Path&gt;" class="cls-2" d="M74.56,489.61a22.82,22.82,0,0,0-3.6,5.7,3.26,3.26,0,0,0-.4,1.3,2.38,2.38,0,0,0,.3,1.2c1.6,3.5,5.8,5.3,9.6,4.6a11.16,11.16,0,0,0,8.1-7.5,5.48,5.48,0,0,0,.4-2.5,4.67,4.67,0,0,0-2-3.4,8.32,8.32,0,0,0-3.8-1.4,12.51,12.51,0,0,0-8,1.6"/><path id="_Path_117" data-name="&lt;Path&gt;" class="cls-2" d="M55.76,424.81a8,8,0,0,0-1,6,9.22,9.22,0,0,0,3.4,5c1.6,1.1,3.9,1.6,5.6.6a5.26,5.26,0,0,0,1.4-1.2,7.85,7.85,0,0,0,1-8.3,7,7,0,0,0-7.2-3.7c-1.5.3-3.1,1.2-3.4,2.8"/><path id="_Path_118" data-name="&lt;Path&gt;" class="cls-2" d="M105.06,471.21a32.12,32.12,0,0,1-16.5-4.9,24.12,24.12,0,0,1-24,12,14.14,14.14,0,0,1-4.3-1.3"/></g><path id="_Path_119" data-name="&lt;Path&gt;" class="cls-2" d="M122,507.41c7.3,1.8,13.8,5.8,20.2,9.8,2.8,1.7,5.6,3.5,8.5,5.2"/><path id="_Path_120" data-name="&lt;Path&gt;" class="cls-2" d="M51.36,544.61c5.2,2.8,10.5,5.7,15.7,8.5a8.75,8.75,0,0,0,4,1.4c11.3.4,21.3-7.2,32.3-9.5,4.8-1,9.7-1.7,14.4-3.2,2.8-.9,5.4-2,8.2-2.8s5.8-1.5,8.7-2.4a48.53,48.53,0,0,0,19.3-11.4c-2.1-64.2-54.7-124.9-56.3-125.9a90.1,90.1,0,0,0-9.6-4.2c-8.2-3.5-15.9-7.9-23.7-12.3"/><path id="_Path_121" data-name="&lt;Path&gt;" class="cls-2" d="M50,485.51a101.19,101.19,0,0,1,10.4-8.2c12.9-8.9,27.7-15.3,42-21.9a16.53,16.53,0,0,1,4.4-1.6,17.82,17.82,0,0,1,6.5.7c7.3,1.8,14.5,3.5,21.8,5.3.2,0,.4.1.4.3s-.4.2-.3.1"/><path id="_Path_122" data-name="&lt;Path&gt;" class="cls-2" d="M44.16,462.41c15.1-11.9,30.3-23.6,45.9-34.7a16.15,16.15,0,0,1,3.6-2.1c3.4-1.2,7.1.2,10.6,1.4a86.89,86.89,0,0,0,17.5,3.9"/><path id="_Path_123" data-name="&lt;Path&gt;" class="cls-2" d="M137.46,513.31a58.48,58.48,0,0,0-7.4-31.7"/><path id="_Path_124" data-name="&lt;Path&gt;" class="cls-2" d="M135.86,516.11c-2.9,4.7-21.6,17.7-32.1,20.6"/><path id="_Path_125" data-name="&lt;Path&gt;" class="cls-2" d="M60.06,547.31c17.5-5,37.4-10.4,51.5-22"/><path id="_Path_126" data-name="&lt;Path&gt;" class="cls-2" d="M83.66,394.21a86.39,86.39,0,0,1,16.9,21.6"/><path id="_Path_127" data-name="&lt;Path&gt;" class="cls-2" d="M125.36,460.51a33.48,33.48,0,0,1,4.7,12.9l.3-1.5"/></g></g></g></svg>