<svg xmlns="http://www.w3.org/2000/svg" xmlns:xlink="http://www.w3.org/1999/xlink" viewBox="0 0 169.73 114"><defs><style>.cls-1{fill:none;}.cls-2{clip-path:url(#clip-path);}.cls-3{fill:#fff;}</style><clipPath id="clip-path"><rect class="cls-1" width="169.73" height="114"/></clipPath></defs><title>Asset 4</title><g id="Layer_2" data-name="Layer 2"><g id="Layer_9" data-name="Layer 9"><g class="cls-2"><path class="cls-3" d="M70.13,65.06c.09-6.58-3.73-11-11.51-13.74a26.75,26.75,0,0,1-5.54-2.67c-1.07-.81-1.21-1.21-1.23-1.77a1.84,1.84,0,0,1,.68-1.5A5.59,5.59,0,0,1,56,44.5a19.18,19.18,0,0,1,8.66,2.16l1.4.62,2.48-10.13-1-.49a22.62,22.62,0,0,0-8.5-2.25V28.47H50.27v6.59C43.63,36.76,39.47,41.77,39.5,48a11.51,11.51,0,0,0,3.59,8.62,24.21,24.21,0,0,0,8.76,4.86,15.62,15.62,0,0,1,4.75,2.34A2.59,2.59,0,0,1,57.72,66a2.14,2.14,0,0,1-1.08,1.92,7,7,0,0,1-3.73.85A20.42,20.42,0,0,1,43,66l-1.47-.84L38.91,75.64l.86.52a25,25,0,0,0,10.18,3v6.42h8.84v-7C65.94,76.82,70.17,71.37,70.13,65.06Zm24-8.06c0,22.85-17.78,41.44-39.64,41.44S14.88,79.85,14.88,57,32.66,15.56,54.52,15.56,94.16,34.15,94.16,57Zm5.34,0c0-25.93-20.18-47-45-47s-45,21.09-45,47,20.18,47,45,47S99.5,82.93,99.5,57ZM109,57c0,31.43-24.46,57-54.52,57S0,88.43,0,57,24.46,0,54.52,0,109,25.57,109,57ZM79.1,114h82.13V93.11H103.34A60.83,60.83,0,0,1,79.1,114Zm34.56-47.31a64.27,64.27,0,0,1-7,20.89h63V66.69Zm47.6-53H97.74a63.12,63.12,0,0,1,12.68,20.88h50.84ZM114.24,61c.08-1.35.14-2.71.14-4.08a65.05,65.05,0,0,0-2.21-16.81H153.6V61Z"/></g></g></g></svg>